<svg xmlns="http://www.w3.org/2000/svg" version="1.1" xmlns:xlink="http://www.w3.org/1999/xlink" xmlns:svgjs="http://svgjs.dev/svgjs" width="1728" height="869" preserveAspectRatio="none" viewBox="0 0 1728 869"><g mask="url(&quot;#SvgjsMask1105&quot;)" fill="none"><rect width="1728" height="869" x="0" y="0" fill="rgba(143, 193, 184, 1)"></rect><path d="M0,588.712C115,603.626,240.689,588.5,333.686,519.226C424.885,451.292,447.095,329.088,489.945,223.75C530.911,123.044,591.294,24.781,578.752,-83.212C566.078,-192.34,502.963,-291.513,421.538,-365.265C345.1,-434.499,242.657,-463.114,140.886,-479.812C48.259,-495.01,-41.866,-474.285,-134.016,-456.417C-235.974,-436.647,-351.973,-441.861,-426.716,-369.752C-502.833,-296.318,-517.09,-181.13,-528.365,-75.967C-539.33,26.3,-534.685,131.128,-490.371,223.945C-446.477,315.883,-364.086,378.528,-282.343,439.334C-195.147,504.196,-107.772,574.735,0,588.712" fill="#6fafa3"></path><path d="M1728 1394.629C1837.745 1393.097 1957.358 1428.899 2049.616 1369.444 2141.8559999999998 1310.001 2172.521 1191.708 2205.357 1087.002 2234.986 992.523 2228.641 895.96 2229.1530000000002 796.9449999999999 2229.76 679.56 2267.274 554.2180000000001 2208.636 452.526 2147.024 345.67499999999995 2032.304 268.304 1911.1109999999999 245.38199999999995 1793.561 223.149 1683.248 292.467 1570.26 331.78599999999994 1463.23 369.031 1331.841 376.597 1266.987 469.53 1202.603 561.79 1249.541 687.037 1243.932 799.401 1238.937 899.465 1209.6660000000002 997.0550000000001 1235.825 1093.769 1265.046 1201.805 1305.0729999999999 1320.13 1400.563 1378.502 1495.728 1436.675 1616.474 1396.185 1728 1394.629" fill="#afd3cd"></path></g><defs><mask id="SvgjsMask1105"><rect width="1728" height="869" fill="#ffffff"></rect></mask></defs></svg>